<mxfile host="app.diagrams.net" modified="2023-10-10T18:58:01.675Z" agent="Mozilla/5.0 (Windows NT 10.0; Win64; x64) AppleWebKit/537.36 (KHTML, like Gecko) Chrome/117.0.0.0 Safari/537.36" etag="fs1BxRuAUuZOFME8umMd" version="22.0.4" type="github">
  <diagram name="Page-1" id="a7904f86-f2b4-8e86-fa97-74104820619b">
    <mxGraphModel dx="2089" dy="1373" grid="1" gridSize="10" guides="1" tooltips="1" connect="1" arrows="1" fold="1" page="1" pageScale="1" pageWidth="1100" pageHeight="850" background="none" math="0" shadow="0">
      <root>
        <mxCell id="0" />
        <mxCell id="1" parent="0" />
        <mxCell id="LfVO2MUX2bvUjFJGlF8E-5" value="" style="edgeStyle=orthogonalEdgeStyle;rounded=0;orthogonalLoop=1;jettySize=auto;html=1;" parent="1" source="LfVO2MUX2bvUjFJGlF8E-2" target="LfVO2MUX2bvUjFJGlF8E-4" edge="1">
          <mxGeometry relative="1" as="geometry">
            <Array as="points">
              <mxPoint x="505" y="690" />
              <mxPoint x="505" y="690" />
            </Array>
          </mxGeometry>
        </mxCell>
        <mxCell id="HKZq3aPh20wgz_vlOcmp-16" value="Login" style="edgeLabel;html=1;align=center;verticalAlign=middle;resizable=0;points=[];" vertex="1" connectable="0" parent="LfVO2MUX2bvUjFJGlF8E-5">
          <mxGeometry x="-0.1193" y="-1" relative="1" as="geometry">
            <mxPoint x="1" y="1" as="offset" />
          </mxGeometry>
        </mxCell>
        <mxCell id="LfVO2MUX2bvUjFJGlF8E-7" value="" style="edgeStyle=orthogonalEdgeStyle;rounded=0;orthogonalLoop=1;jettySize=auto;html=1;" parent="1" source="LfVO2MUX2bvUjFJGlF8E-2" target="LfVO2MUX2bvUjFJGlF8E-6" edge="1">
          <mxGeometry relative="1" as="geometry">
            <Array as="points">
              <mxPoint x="505" y="360" />
              <mxPoint x="505" y="360" />
            </Array>
          </mxGeometry>
        </mxCell>
        <mxCell id="HKZq3aPh20wgz_vlOcmp-15" value="Login / Register" style="edgeLabel;html=1;align=center;verticalAlign=middle;resizable=0;points=[];" vertex="1" connectable="0" parent="LfVO2MUX2bvUjFJGlF8E-7">
          <mxGeometry x="0.0649" y="2" relative="1" as="geometry">
            <mxPoint as="offset" />
          </mxGeometry>
        </mxCell>
        <mxCell id="HKZq3aPh20wgz_vlOcmp-6" style="edgeStyle=orthogonalEdgeStyle;rounded=0;orthogonalLoop=1;jettySize=auto;html=1;entryX=0;entryY=0.5;entryDx=0;entryDy=0;" edge="1" parent="1" source="LfVO2MUX2bvUjFJGlF8E-2" target="LfVO2MUX2bvUjFJGlF8E-50">
          <mxGeometry relative="1" as="geometry" />
        </mxCell>
        <mxCell id="HKZq3aPh20wgz_vlOcmp-22" value="" style="edgeStyle=orthogonalEdgeStyle;rounded=0;orthogonalLoop=1;jettySize=auto;html=1;entryX=1;entryY=0.5;entryDx=0;entryDy=0;" edge="1" parent="1" source="LfVO2MUX2bvUjFJGlF8E-2" target="HKZq3aPh20wgz_vlOcmp-21">
          <mxGeometry relative="1" as="geometry">
            <Array as="points">
              <mxPoint x="410" y="575" />
              <mxPoint x="410" y="470" />
            </Array>
          </mxGeometry>
        </mxCell>
        <mxCell id="HKZq3aPh20wgz_vlOcmp-27" style="edgeStyle=orthogonalEdgeStyle;rounded=0;orthogonalLoop=1;jettySize=auto;html=1;entryX=1;entryY=0.5;entryDx=0;entryDy=0;" edge="1" parent="1" source="LfVO2MUX2bvUjFJGlF8E-2" target="HKZq3aPh20wgz_vlOcmp-23">
          <mxGeometry relative="1" as="geometry">
            <Array as="points">
              <mxPoint x="410" y="575" />
              <mxPoint x="410" y="515" />
            </Array>
          </mxGeometry>
        </mxCell>
        <mxCell id="HKZq3aPh20wgz_vlOcmp-28" style="edgeStyle=orthogonalEdgeStyle;rounded=0;orthogonalLoop=1;jettySize=auto;html=1;entryX=1;entryY=0.5;entryDx=0;entryDy=0;" edge="1" parent="1" source="LfVO2MUX2bvUjFJGlF8E-2" target="HKZq3aPh20wgz_vlOcmp-24">
          <mxGeometry relative="1" as="geometry">
            <Array as="points">
              <mxPoint x="410" y="575" />
              <mxPoint x="410" y="580" />
            </Array>
          </mxGeometry>
        </mxCell>
        <mxCell id="HKZq3aPh20wgz_vlOcmp-29" style="edgeStyle=orthogonalEdgeStyle;rounded=0;orthogonalLoop=1;jettySize=auto;html=1;entryX=1;entryY=0.5;entryDx=0;entryDy=0;" edge="1" parent="1" source="LfVO2MUX2bvUjFJGlF8E-2" target="HKZq3aPh20wgz_vlOcmp-25">
          <mxGeometry relative="1" as="geometry">
            <Array as="points">
              <mxPoint x="410" y="575" />
              <mxPoint x="410" y="637" />
            </Array>
          </mxGeometry>
        </mxCell>
        <mxCell id="HKZq3aPh20wgz_vlOcmp-31" value="Register" style="edgeLabel;html=1;align=center;verticalAlign=middle;resizable=0;points=[];" vertex="1" connectable="0" parent="HKZq3aPh20wgz_vlOcmp-29">
          <mxGeometry x="-0.6851" y="-2" relative="1" as="geometry">
            <mxPoint x="-14" y="2" as="offset" />
          </mxGeometry>
        </mxCell>
        <mxCell id="LfVO2MUX2bvUjFJGlF8E-2" value="Actor" style="shape=umlActor;verticalLabelPosition=bottom;verticalAlign=top;html=1;outlineConnect=0;" parent="1" vertex="1">
          <mxGeometry x="490" y="545" width="30" height="60" as="geometry" />
        </mxCell>
        <mxCell id="LfVO2MUX2bvUjFJGlF8E-14" style="edgeStyle=orthogonalEdgeStyle;rounded=0;orthogonalLoop=1;jettySize=auto;html=1;entryX=0.5;entryY=1;entryDx=0;entryDy=0;" parent="1" source="LfVO2MUX2bvUjFJGlF8E-4" target="LfVO2MUX2bvUjFJGlF8E-12" edge="1">
          <mxGeometry relative="1" as="geometry" />
        </mxCell>
        <mxCell id="HKZq3aPh20wgz_vlOcmp-42" value="Login" style="edgeLabel;html=1;align=center;verticalAlign=middle;resizable=0;points=[];" vertex="1" connectable="0" parent="LfVO2MUX2bvUjFJGlF8E-14">
          <mxGeometry x="-0.4679" y="-4" relative="1" as="geometry">
            <mxPoint y="4" as="offset" />
          </mxGeometry>
        </mxCell>
        <object label="&lt;br&gt;&lt;br&gt;Auth" Auth="Auth" id="LfVO2MUX2bvUjFJGlF8E-4">
          <mxCell style="ellipse;whiteSpace=wrap;verticalAlign=top;html=1;" parent="1" vertex="1">
            <mxGeometry x="465" y="750" width="80" height="80" as="geometry" />
          </mxCell>
        </object>
        <mxCell id="LfVO2MUX2bvUjFJGlF8E-39" value="" style="edgeStyle=orthogonalEdgeStyle;rounded=0;orthogonalLoop=1;jettySize=auto;html=1;" parent="1" source="LfVO2MUX2bvUjFJGlF8E-6" target="LfVO2MUX2bvUjFJGlF8E-38" edge="1">
          <mxGeometry relative="1" as="geometry" />
        </mxCell>
        <mxCell id="LfVO2MUX2bvUjFJGlF8E-41" value="" style="edgeStyle=orthogonalEdgeStyle;rounded=0;orthogonalLoop=1;jettySize=auto;html=1;" parent="1" source="LfVO2MUX2bvUjFJGlF8E-6" target="LfVO2MUX2bvUjFJGlF8E-38" edge="1">
          <mxGeometry relative="1" as="geometry" />
        </mxCell>
        <mxCell id="LfVO2MUX2bvUjFJGlF8E-42" value="" style="edgeStyle=orthogonalEdgeStyle;rounded=0;orthogonalLoop=1;jettySize=auto;html=1;" parent="1" source="LfVO2MUX2bvUjFJGlF8E-6" target="LfVO2MUX2bvUjFJGlF8E-38" edge="1">
          <mxGeometry relative="1" as="geometry" />
        </mxCell>
        <mxCell id="LfVO2MUX2bvUjFJGlF8E-43" style="edgeStyle=orthogonalEdgeStyle;rounded=0;orthogonalLoop=1;jettySize=auto;html=1;entryX=1;entryY=0.5;entryDx=0;entryDy=0;" parent="1" source="LfVO2MUX2bvUjFJGlF8E-6" target="LfVO2MUX2bvUjFJGlF8E-44" edge="1">
          <mxGeometry relative="1" as="geometry">
            <mxPoint x="420" y="380" as="targetPoint" />
          </mxGeometry>
        </mxCell>
        <object label="&lt;br&gt;Outh&lt;br&gt;" Outh="Outh" id="LfVO2MUX2bvUjFJGlF8E-6">
          <mxCell style="ellipse;whiteSpace=wrap;html=1;verticalAlign=top;fontStyle=4" parent="1" vertex="1">
            <mxGeometry x="465" y="230" width="80" height="70" as="geometry" />
          </mxCell>
        </object>
        <mxCell id="LfVO2MUX2bvUjFJGlF8E-16" value="" style="edgeStyle=orthogonalEdgeStyle;rounded=0;orthogonalLoop=1;jettySize=auto;html=1;entryX=1;entryY=0.5;entryDx=0;entryDy=0;" parent="1" source="LfVO2MUX2bvUjFJGlF8E-12" target="LfVO2MUX2bvUjFJGlF8E-15" edge="1">
          <mxGeometry relative="1" as="geometry" />
        </mxCell>
        <mxCell id="LfVO2MUX2bvUjFJGlF8E-20" style="edgeStyle=orthogonalEdgeStyle;rounded=0;orthogonalLoop=1;jettySize=auto;html=1;entryX=1;entryY=0.5;entryDx=0;entryDy=0;" parent="1" source="LfVO2MUX2bvUjFJGlF8E-12" target="LfVO2MUX2bvUjFJGlF8E-21" edge="1">
          <mxGeometry relative="1" as="geometry">
            <mxPoint x="110" y="400" as="targetPoint" />
          </mxGeometry>
        </mxCell>
        <mxCell id="LfVO2MUX2bvUjFJGlF8E-25" style="edgeStyle=orthogonalEdgeStyle;rounded=0;orthogonalLoop=1;jettySize=auto;html=1;entryX=1;entryY=0.5;entryDx=0;entryDy=0;" parent="1" source="LfVO2MUX2bvUjFJGlF8E-12" target="LfVO2MUX2bvUjFJGlF8E-22" edge="1">
          <mxGeometry relative="1" as="geometry" />
        </mxCell>
        <mxCell id="LfVO2MUX2bvUjFJGlF8E-26" style="edgeStyle=orthogonalEdgeStyle;rounded=0;orthogonalLoop=1;jettySize=auto;html=1;entryX=1;entryY=0.5;entryDx=0;entryDy=0;" parent="1" source="LfVO2MUX2bvUjFJGlF8E-12" target="LfVO2MUX2bvUjFJGlF8E-23" edge="1">
          <mxGeometry relative="1" as="geometry" />
        </mxCell>
        <mxCell id="LfVO2MUX2bvUjFJGlF8E-29" style="edgeStyle=orthogonalEdgeStyle;rounded=0;orthogonalLoop=1;jettySize=auto;html=1;entryX=1;entryY=0.5;entryDx=0;entryDy=0;" parent="1" source="LfVO2MUX2bvUjFJGlF8E-12" target="LfVO2MUX2bvUjFJGlF8E-27" edge="1">
          <mxGeometry relative="1" as="geometry" />
        </mxCell>
        <mxCell id="LfVO2MUX2bvUjFJGlF8E-30" style="edgeStyle=orthogonalEdgeStyle;rounded=0;orthogonalLoop=1;jettySize=auto;html=1;entryX=1;entryY=0.5;entryDx=0;entryDy=0;" parent="1" source="LfVO2MUX2bvUjFJGlF8E-12" target="LfVO2MUX2bvUjFJGlF8E-24" edge="1">
          <mxGeometry relative="1" as="geometry" />
        </mxCell>
        <mxCell id="LfVO2MUX2bvUjFJGlF8E-33" style="edgeStyle=orthogonalEdgeStyle;rounded=0;orthogonalLoop=1;jettySize=auto;html=1;entryX=1;entryY=0.5;entryDx=0;entryDy=0;" parent="1" source="LfVO2MUX2bvUjFJGlF8E-12" target="LfVO2MUX2bvUjFJGlF8E-31" edge="1">
          <mxGeometry relative="1" as="geometry" />
        </mxCell>
        <mxCell id="LfVO2MUX2bvUjFJGlF8E-34" style="edgeStyle=orthogonalEdgeStyle;rounded=0;orthogonalLoop=1;jettySize=auto;html=1;entryX=1;entryY=0.5;entryDx=0;entryDy=0;" parent="1" source="LfVO2MUX2bvUjFJGlF8E-12" target="LfVO2MUX2bvUjFJGlF8E-32" edge="1">
          <mxGeometry relative="1" as="geometry" />
        </mxCell>
        <mxCell id="LfVO2MUX2bvUjFJGlF8E-60" style="edgeStyle=orthogonalEdgeStyle;rounded=0;orthogonalLoop=1;jettySize=auto;html=1;entryX=1;entryY=0.5;entryDx=0;entryDy=0;" parent="1" source="LfVO2MUX2bvUjFJGlF8E-12" target="LfVO2MUX2bvUjFJGlF8E-47" edge="1">
          <mxGeometry relative="1" as="geometry">
            <Array as="points">
              <mxPoint x="110" y="488" />
              <mxPoint x="110" y="575" />
            </Array>
          </mxGeometry>
        </mxCell>
        <mxCell id="HKZq3aPh20wgz_vlOcmp-62" value="Require phone" style="edgeLabel;html=1;align=center;verticalAlign=middle;resizable=0;points=[];" vertex="1" connectable="0" parent="LfVO2MUX2bvUjFJGlF8E-60">
          <mxGeometry x="0.4692" relative="1" as="geometry">
            <mxPoint as="offset" />
          </mxGeometry>
        </mxCell>
        <mxCell id="LfVO2MUX2bvUjFJGlF8E-61" style="edgeStyle=orthogonalEdgeStyle;rounded=0;orthogonalLoop=1;jettySize=auto;html=1;entryX=1;entryY=0.5;entryDx=0;entryDy=0;" parent="1" source="LfVO2MUX2bvUjFJGlF8E-12" target="LfVO2MUX2bvUjFJGlF8E-59" edge="1">
          <mxGeometry relative="1" as="geometry">
            <Array as="points">
              <mxPoint x="110" y="487" />
              <mxPoint x="110" y="640" />
            </Array>
          </mxGeometry>
        </mxCell>
        <mxCell id="HKZq3aPh20wgz_vlOcmp-64" value="Phone/Email" style="edgeLabel;html=1;align=center;verticalAlign=middle;resizable=0;points=[];" vertex="1" connectable="0" parent="LfVO2MUX2bvUjFJGlF8E-61">
          <mxGeometry x="0.7223" y="1" relative="1" as="geometry">
            <mxPoint x="24" y="-1" as="offset" />
          </mxGeometry>
        </mxCell>
        <mxCell id="LfVO2MUX2bvUjFJGlF8E-71" style="edgeStyle=orthogonalEdgeStyle;rounded=0;orthogonalLoop=1;jettySize=auto;html=1;entryX=1;entryY=0.5;entryDx=0;entryDy=0;" parent="1" source="LfVO2MUX2bvUjFJGlF8E-12" target="LfVO2MUX2bvUjFJGlF8E-70" edge="1">
          <mxGeometry relative="1" as="geometry" />
        </mxCell>
        <mxCell id="LfVO2MUX2bvUjFJGlF8E-90" style="edgeStyle=orthogonalEdgeStyle;rounded=0;orthogonalLoop=1;jettySize=auto;html=1;entryX=1;entryY=0.5;entryDx=0;entryDy=0;" parent="1" source="LfVO2MUX2bvUjFJGlF8E-12" target="LfVO2MUX2bvUjFJGlF8E-89" edge="1">
          <mxGeometry relative="1" as="geometry">
            <Array as="points">
              <mxPoint x="110" y="488" />
              <mxPoint x="110" y="695" />
            </Array>
          </mxGeometry>
        </mxCell>
        <mxCell id="LfVO2MUX2bvUjFJGlF8E-12" value="Settings&lt;br&gt;" style="ellipse;whiteSpace=wrap;html=1;" parent="1" vertex="1">
          <mxGeometry x="160" y="450" width="70" height="75" as="geometry" />
        </mxCell>
        <mxCell id="LfVO2MUX2bvUjFJGlF8E-15" value="Name&lt;br&gt;" style="whiteSpace=wrap;html=1;" parent="1" vertex="1">
          <mxGeometry x="-40" y="120" width="100" height="30" as="geometry" />
        </mxCell>
        <mxCell id="LfVO2MUX2bvUjFJGlF8E-21" value="Age" style="whiteSpace=wrap;html=1;" parent="1" vertex="1">
          <mxGeometry x="-40" y="180" width="100" height="30" as="geometry" />
        </mxCell>
        <mxCell id="LfVO2MUX2bvUjFJGlF8E-22" value="Date" style="whiteSpace=wrap;html=1;" parent="1" vertex="1">
          <mxGeometry x="-40" y="235" width="100" height="30" as="geometry" />
        </mxCell>
        <mxCell id="LfVO2MUX2bvUjFJGlF8E-23" value="Phone" style="whiteSpace=wrap;html=1;" parent="1" vertex="1">
          <mxGeometry x="-40" y="280" width="100" height="30" as="geometry" />
        </mxCell>
        <mxCell id="LfVO2MUX2bvUjFJGlF8E-24" value="Address" style="whiteSpace=wrap;html=1;" parent="1" vertex="1">
          <mxGeometry x="-40" y="330" width="100" height="30" as="geometry" />
        </mxCell>
        <mxCell id="LfVO2MUX2bvUjFJGlF8E-27" value="Mail" style="whiteSpace=wrap;html=1;" parent="1" vertex="1">
          <mxGeometry x="-40" y="375" width="100" height="30" as="geometry" />
        </mxCell>
        <mxCell id="LfVO2MUX2bvUjFJGlF8E-31" value="Username" style="whiteSpace=wrap;html=1;" parent="1" vertex="1">
          <mxGeometry x="-40" y="425" width="100" height="30" as="geometry" />
        </mxCell>
        <mxCell id="LfVO2MUX2bvUjFJGlF8E-32" value="Password" style="whiteSpace=wrap;html=1;" parent="1" vertex="1">
          <mxGeometry x="-40" y="490" width="100" height="30" as="geometry" />
        </mxCell>
        <mxCell id="LfVO2MUX2bvUjFJGlF8E-45" style="edgeStyle=orthogonalEdgeStyle;rounded=0;orthogonalLoop=1;jettySize=auto;html=1;entryX=0.5;entryY=0;entryDx=0;entryDy=0;" parent="1" source="LfVO2MUX2bvUjFJGlF8E-38" target="LfVO2MUX2bvUjFJGlF8E-12" edge="1">
          <mxGeometry relative="1" as="geometry">
            <Array as="points">
              <mxPoint x="195" y="265" />
            </Array>
          </mxGeometry>
        </mxCell>
        <mxCell id="HKZq3aPh20wgz_vlOcmp-40" value="Login" style="edgeLabel;html=1;align=center;verticalAlign=middle;resizable=0;points=[];" vertex="1" connectable="0" parent="LfVO2MUX2bvUjFJGlF8E-45">
          <mxGeometry x="-0.0579" relative="1" as="geometry">
            <mxPoint as="offset" />
          </mxGeometry>
        </mxCell>
        <mxCell id="LfVO2MUX2bvUjFJGlF8E-38" value="&lt;div style=&quot;&quot;&gt;&lt;br&gt;&lt;/div&gt;&lt;div style=&quot;&quot;&gt;&lt;span style=&quot;background-color: initial;&quot;&gt;Facebook&lt;/span&gt;&lt;br&gt;&lt;/div&gt;&lt;div style=&quot;&quot;&gt;&lt;br&gt;&lt;/div&gt;" style="ellipse;whiteSpace=wrap;html=1;verticalAlign=top;fontStyle=4;align=center;" parent="1" vertex="1">
          <mxGeometry x="230" y="235" width="70" height="60" as="geometry" />
        </mxCell>
        <mxCell id="LfVO2MUX2bvUjFJGlF8E-46" style="edgeStyle=orthogonalEdgeStyle;rounded=0;orthogonalLoop=1;jettySize=auto;html=1;entryX=0.5;entryY=0;entryDx=0;entryDy=0;" parent="1" source="LfVO2MUX2bvUjFJGlF8E-44" target="LfVO2MUX2bvUjFJGlF8E-12" edge="1">
          <mxGeometry relative="1" as="geometry" />
        </mxCell>
        <mxCell id="HKZq3aPh20wgz_vlOcmp-41" value="Login" style="edgeLabel;html=1;align=center;verticalAlign=middle;resizable=0;points=[];" vertex="1" connectable="0" parent="LfVO2MUX2bvUjFJGlF8E-46">
          <mxGeometry x="-0.4184" y="1" relative="1" as="geometry">
            <mxPoint x="1" as="offset" />
          </mxGeometry>
        </mxCell>
        <mxCell id="LfVO2MUX2bvUjFJGlF8E-44" value="&lt;div style=&quot;&quot;&gt;&lt;br&gt;&lt;/div&gt;&lt;div style=&quot;&quot;&gt;Google&lt;/div&gt;" style="ellipse;whiteSpace=wrap;html=1;verticalAlign=top;fontStyle=4;align=center;" parent="1" vertex="1">
          <mxGeometry x="330" y="360" width="70" height="60" as="geometry" />
        </mxCell>
        <mxCell id="LfVO2MUX2bvUjFJGlF8E-47" value="Delete Account" style="whiteSpace=wrap;html=1;" parent="1" vertex="1">
          <mxGeometry x="-120" y="560" width="100" height="30" as="geometry" />
        </mxCell>
        <mxCell id="LfVO2MUX2bvUjFJGlF8E-49" value="update cart" style="whiteSpace=wrap;html=1;" parent="1" vertex="1">
          <mxGeometry x="860" y="670" width="100" height="30" as="geometry" />
        </mxCell>
        <mxCell id="LfVO2MUX2bvUjFJGlF8E-53" value="" style="edgeStyle=orthogonalEdgeStyle;rounded=0;orthogonalLoop=1;jettySize=auto;html=1;entryX=0;entryY=0.5;entryDx=0;entryDy=0;" parent="1" source="LfVO2MUX2bvUjFJGlF8E-50" target="LfVO2MUX2bvUjFJGlF8E-52" edge="1">
          <mxGeometry relative="1" as="geometry" />
        </mxCell>
        <mxCell id="LfVO2MUX2bvUjFJGlF8E-57" style="edgeStyle=orthogonalEdgeStyle;rounded=0;orthogonalLoop=1;jettySize=auto;html=1;entryX=0;entryY=0.5;entryDx=0;entryDy=0;" parent="1" source="LfVO2MUX2bvUjFJGlF8E-50" target="LfVO2MUX2bvUjFJGlF8E-54" edge="1">
          <mxGeometry relative="1" as="geometry" />
        </mxCell>
        <mxCell id="LfVO2MUX2bvUjFJGlF8E-58" style="edgeStyle=orthogonalEdgeStyle;rounded=0;orthogonalLoop=1;jettySize=auto;html=1;entryX=0;entryY=0.5;entryDx=0;entryDy=0;" parent="1" source="LfVO2MUX2bvUjFJGlF8E-50" target="LfVO2MUX2bvUjFJGlF8E-55" edge="1">
          <mxGeometry relative="1" as="geometry" />
        </mxCell>
        <mxCell id="HKZq3aPh20wgz_vlOcmp-10" value="Require login&lt;br&gt;" style="edgeLabel;html=1;align=center;verticalAlign=middle;resizable=0;points=[];" vertex="1" connectable="0" parent="LfVO2MUX2bvUjFJGlF8E-58">
          <mxGeometry x="-0.2286" relative="1" as="geometry">
            <mxPoint y="25" as="offset" />
          </mxGeometry>
        </mxCell>
        <mxCell id="HKZq3aPh20wgz_vlOcmp-11" style="edgeStyle=orthogonalEdgeStyle;rounded=0;orthogonalLoop=1;jettySize=auto;html=1;entryX=0.5;entryY=1;entryDx=0;entryDy=0;" edge="1" parent="1" source="LfVO2MUX2bvUjFJGlF8E-50" target="HKZq3aPh20wgz_vlOcmp-12">
          <mxGeometry relative="1" as="geometry">
            <mxPoint x="740" y="400" as="targetPoint" />
          </mxGeometry>
        </mxCell>
        <mxCell id="HKZq3aPh20wgz_vlOcmp-13" value="Require login" style="edgeLabel;html=1;align=center;verticalAlign=middle;resizable=0;points=[];" vertex="1" connectable="0" parent="HKZq3aPh20wgz_vlOcmp-11">
          <mxGeometry x="0.2725" y="-1" relative="1" as="geometry">
            <mxPoint as="offset" />
          </mxGeometry>
        </mxCell>
        <mxCell id="LfVO2MUX2bvUjFJGlF8E-50" value="&lt;br&gt;&lt;br&gt;Shop" style="ellipse;whiteSpace=wrap;html=1;verticalAlign=top;" parent="1" vertex="1">
          <mxGeometry x="640" y="440" width="80" height="80" as="geometry" />
        </mxCell>
        <mxCell id="LfVO2MUX2bvUjFJGlF8E-52" value="Find item" style="whiteSpace=wrap;html=1;verticalAlign=top;" parent="1" vertex="1">
          <mxGeometry x="710" y="190" width="80" height="30" as="geometry" />
        </mxCell>
        <mxCell id="LfVO2MUX2bvUjFJGlF8E-54" value="Search item" style="whiteSpace=wrap;html=1;verticalAlign=top;" parent="1" vertex="1">
          <mxGeometry x="710" y="270" width="80" height="30" as="geometry" />
        </mxCell>
        <mxCell id="LfVO2MUX2bvUjFJGlF8E-86" style="edgeStyle=orthogonalEdgeStyle;rounded=0;orthogonalLoop=1;jettySize=auto;html=1;entryX=0;entryY=0.5;entryDx=0;entryDy=0;" parent="1" source="LfVO2MUX2bvUjFJGlF8E-55" target="LfVO2MUX2bvUjFJGlF8E-49" edge="1">
          <mxGeometry relative="1" as="geometry" />
        </mxCell>
        <mxCell id="LfVO2MUX2bvUjFJGlF8E-87" style="edgeStyle=orthogonalEdgeStyle;rounded=0;orthogonalLoop=1;jettySize=auto;html=1;entryX=0;entryY=0.5;entryDx=0;entryDy=0;" parent="1" source="LfVO2MUX2bvUjFJGlF8E-55" target="LfVO2MUX2bvUjFJGlF8E-65" edge="1">
          <mxGeometry relative="1" as="geometry" />
        </mxCell>
        <mxCell id="LfVO2MUX2bvUjFJGlF8E-88" style="edgeStyle=orthogonalEdgeStyle;rounded=0;orthogonalLoop=1;jettySize=auto;html=1;entryX=0;entryY=0.5;entryDx=0;entryDy=0;" parent="1" source="LfVO2MUX2bvUjFJGlF8E-55" target="LfVO2MUX2bvUjFJGlF8E-63" edge="1">
          <mxGeometry relative="1" as="geometry" />
        </mxCell>
        <mxCell id="LfVO2MUX2bvUjFJGlF8E-55" value="Add to cart" style="whiteSpace=wrap;html=1;verticalAlign=top;" parent="1" vertex="1">
          <mxGeometry x="710" y="670" width="80" height="30" as="geometry" />
        </mxCell>
        <mxCell id="LfVO2MUX2bvUjFJGlF8E-59" value="Fogot password" style="whiteSpace=wrap;html=1;" parent="1" vertex="1">
          <mxGeometry x="-120" y="625" width="100" height="30" as="geometry" />
        </mxCell>
        <mxCell id="LfVO2MUX2bvUjFJGlF8E-63" value="view cart" style="whiteSpace=wrap;html=1;verticalAlign=top;" parent="1" vertex="1">
          <mxGeometry x="860" y="620" width="100" height="30" as="geometry" />
        </mxCell>
        <mxCell id="LfVO2MUX2bvUjFJGlF8E-65" value="remove cart" style="whiteSpace=wrap;html=1;" parent="1" vertex="1">
          <mxGeometry x="860" y="720" width="100" height="30" as="geometry" />
        </mxCell>
        <mxCell id="LfVO2MUX2bvUjFJGlF8E-78" value="" style="edgeStyle=orthogonalEdgeStyle;rounded=0;orthogonalLoop=1;jettySize=auto;html=1;" parent="1" source="LfVO2MUX2bvUjFJGlF8E-66" target="LfVO2MUX2bvUjFJGlF8E-77" edge="1">
          <mxGeometry relative="1" as="geometry" />
        </mxCell>
        <mxCell id="LfVO2MUX2bvUjFJGlF8E-80" value="" style="edgeStyle=orthogonalEdgeStyle;rounded=0;orthogonalLoop=1;jettySize=auto;html=1;" parent="1" source="LfVO2MUX2bvUjFJGlF8E-66" target="LfVO2MUX2bvUjFJGlF8E-77" edge="1">
          <mxGeometry relative="1" as="geometry" />
        </mxCell>
        <mxCell id="LfVO2MUX2bvUjFJGlF8E-83" style="edgeStyle=orthogonalEdgeStyle;rounded=0;orthogonalLoop=1;jettySize=auto;html=1;entryX=0.5;entryY=1;entryDx=0;entryDy=0;" parent="1" source="LfVO2MUX2bvUjFJGlF8E-66" target="LfVO2MUX2bvUjFJGlF8E-82" edge="1">
          <mxGeometry relative="1" as="geometry" />
        </mxCell>
        <mxCell id="LfVO2MUX2bvUjFJGlF8E-66" value="paycart" style="whiteSpace=wrap;html=1;" parent="1" vertex="1">
          <mxGeometry x="880" y="380" width="100" height="40" as="geometry" />
        </mxCell>
        <mxCell id="LfVO2MUX2bvUjFJGlF8E-74" style="edgeStyle=orthogonalEdgeStyle;rounded=0;orthogonalLoop=1;jettySize=auto;html=1;entryX=1;entryY=0.5;entryDx=0;entryDy=0;" parent="1" source="LfVO2MUX2bvUjFJGlF8E-70" target="LfVO2MUX2bvUjFJGlF8E-49" edge="1">
          <mxGeometry relative="1" as="geometry">
            <Array as="points">
              <mxPoint x="70" y="890" />
              <mxPoint x="1080" y="890" />
              <mxPoint x="1080" y="685" />
            </Array>
          </mxGeometry>
        </mxCell>
        <mxCell id="LfVO2MUX2bvUjFJGlF8E-75" style="edgeStyle=orthogonalEdgeStyle;rounded=0;orthogonalLoop=1;jettySize=auto;html=1;entryX=1;entryY=0.25;entryDx=0;entryDy=0;" parent="1" edge="1">
          <mxGeometry relative="1" as="geometry">
            <Array as="points">
              <mxPoint x="70" y="850.46" />
              <mxPoint x="1080" y="850.46" />
              <mxPoint x="1080" y="778.46" />
              <mxPoint x="960" y="778.46" />
            </Array>
            <mxPoint x="69.9565217391305" y="810.5" as="sourcePoint" />
            <mxPoint x="960" y="778" as="targetPoint" />
          </mxGeometry>
        </mxCell>
        <mxCell id="LfVO2MUX2bvUjFJGlF8E-85" style="edgeStyle=orthogonalEdgeStyle;rounded=0;orthogonalLoop=1;jettySize=auto;html=1;entryX=1;entryY=0.5;entryDx=0;entryDy=0;" parent="1" source="LfVO2MUX2bvUjFJGlF8E-70" target="LfVO2MUX2bvUjFJGlF8E-66" edge="1">
          <mxGeometry relative="1" as="geometry">
            <Array as="points">
              <mxPoint x="70" y="970" />
              <mxPoint x="1110" y="970" />
              <mxPoint x="1110" y="400" />
            </Array>
          </mxGeometry>
        </mxCell>
        <mxCell id="HKZq3aPh20wgz_vlOcmp-9" style="edgeStyle=orthogonalEdgeStyle;rounded=0;orthogonalLoop=1;jettySize=auto;html=1;entryX=1;entryY=0.5;entryDx=0;entryDy=0;" edge="1" parent="1" source="LfVO2MUX2bvUjFJGlF8E-70" target="LfVO2MUX2bvUjFJGlF8E-63">
          <mxGeometry relative="1" as="geometry">
            <Array as="points">
              <mxPoint x="70" y="920" />
              <mxPoint x="1080" y="920" />
              <mxPoint x="1080" y="635" />
            </Array>
          </mxGeometry>
        </mxCell>
        <mxCell id="LfVO2MUX2bvUjFJGlF8E-70" value="cart" style="whiteSpace=wrap;html=1;" parent="1" vertex="1">
          <mxGeometry x="20" y="730" width="100" height="30" as="geometry" />
        </mxCell>
        <mxCell id="LfVO2MUX2bvUjFJGlF8E-91" style="edgeStyle=orthogonalEdgeStyle;rounded=0;orthogonalLoop=1;jettySize=auto;html=1;entryX=0.5;entryY=0;entryDx=0;entryDy=0;" parent="1" source="LfVO2MUX2bvUjFJGlF8E-77" target="LfVO2MUX2bvUjFJGlF8E-89" edge="1">
          <mxGeometry relative="1" as="geometry">
            <Array as="points">
              <mxPoint x="870" y="20" />
              <mxPoint x="-210" y="20" />
              <mxPoint x="-210" y="600" />
              <mxPoint x="-340" y="600" />
            </Array>
          </mxGeometry>
        </mxCell>
        <mxCell id="LfVO2MUX2bvUjFJGlF8E-77" value="Online" style="ellipse;whiteSpace=wrap;html=1;" parent="1" vertex="1">
          <mxGeometry x="830" y="167.5" width="80" height="75" as="geometry" />
        </mxCell>
        <mxCell id="LfVO2MUX2bvUjFJGlF8E-92" style="edgeStyle=orthogonalEdgeStyle;rounded=0;orthogonalLoop=1;jettySize=auto;html=1;entryX=0.5;entryY=0;entryDx=0;entryDy=0;" parent="1" source="LfVO2MUX2bvUjFJGlF8E-82" target="LfVO2MUX2bvUjFJGlF8E-89" edge="1">
          <mxGeometry relative="1" as="geometry">
            <Array as="points">
              <mxPoint x="1000" y="-30" />
              <mxPoint x="-340" y="-30" />
            </Array>
          </mxGeometry>
        </mxCell>
        <mxCell id="LfVO2MUX2bvUjFJGlF8E-82" value="Offline" style="ellipse;whiteSpace=wrap;html=1;" parent="1" vertex="1">
          <mxGeometry x="960" y="167.5" width="80" height="75" as="geometry" />
        </mxCell>
        <mxCell id="HKZq3aPh20wgz_vlOcmp-44" value="" style="edgeStyle=orthogonalEdgeStyle;rounded=0;orthogonalLoop=1;jettySize=auto;html=1;entryX=1;entryY=0.5;entryDx=0;entryDy=0;" edge="1" parent="1" source="LfVO2MUX2bvUjFJGlF8E-89" target="HKZq3aPh20wgz_vlOcmp-43">
          <mxGeometry relative="1" as="geometry" />
        </mxCell>
        <mxCell id="HKZq3aPh20wgz_vlOcmp-54" style="edgeStyle=orthogonalEdgeStyle;rounded=0;orthogonalLoop=1;jettySize=auto;html=1;entryX=1;entryY=0.5;entryDx=0;entryDy=0;" edge="1" parent="1" source="LfVO2MUX2bvUjFJGlF8E-89" target="HKZq3aPh20wgz_vlOcmp-51">
          <mxGeometry relative="1" as="geometry" />
        </mxCell>
        <mxCell id="HKZq3aPh20wgz_vlOcmp-55" style="edgeStyle=orthogonalEdgeStyle;rounded=0;orthogonalLoop=1;jettySize=auto;html=1;entryX=1;entryY=0.5;entryDx=0;entryDy=0;" edge="1" parent="1" source="LfVO2MUX2bvUjFJGlF8E-89" target="HKZq3aPh20wgz_vlOcmp-45">
          <mxGeometry relative="1" as="geometry" />
        </mxCell>
        <mxCell id="HKZq3aPh20wgz_vlOcmp-56" style="edgeStyle=orthogonalEdgeStyle;rounded=0;orthogonalLoop=1;jettySize=auto;html=1;entryX=1;entryY=0.5;entryDx=0;entryDy=0;" edge="1" parent="1" source="LfVO2MUX2bvUjFJGlF8E-89" target="HKZq3aPh20wgz_vlOcmp-48">
          <mxGeometry relative="1" as="geometry" />
        </mxCell>
        <mxCell id="HKZq3aPh20wgz_vlOcmp-57" style="edgeStyle=orthogonalEdgeStyle;rounded=0;orthogonalLoop=1;jettySize=auto;html=1;entryX=1;entryY=0.5;entryDx=0;entryDy=0;" edge="1" parent="1" source="LfVO2MUX2bvUjFJGlF8E-89" target="HKZq3aPh20wgz_vlOcmp-46">
          <mxGeometry relative="1" as="geometry" />
        </mxCell>
        <mxCell id="HKZq3aPh20wgz_vlOcmp-58" style="edgeStyle=orthogonalEdgeStyle;rounded=0;orthogonalLoop=1;jettySize=auto;html=1;entryX=1;entryY=0.5;entryDx=0;entryDy=0;" edge="1" parent="1" source="LfVO2MUX2bvUjFJGlF8E-89" target="HKZq3aPh20wgz_vlOcmp-47">
          <mxGeometry relative="1" as="geometry" />
        </mxCell>
        <mxCell id="HKZq3aPh20wgz_vlOcmp-59" style="edgeStyle=orthogonalEdgeStyle;rounded=0;orthogonalLoop=1;jettySize=auto;html=1;entryX=1;entryY=0.5;entryDx=0;entryDy=0;" edge="1" parent="1" source="LfVO2MUX2bvUjFJGlF8E-89" target="HKZq3aPh20wgz_vlOcmp-49">
          <mxGeometry relative="1" as="geometry" />
        </mxCell>
        <mxCell id="HKZq3aPh20wgz_vlOcmp-60" style="edgeStyle=orthogonalEdgeStyle;rounded=0;orthogonalLoop=1;jettySize=auto;html=1;entryX=1;entryY=0.5;entryDx=0;entryDy=0;" edge="1" parent="1" source="LfVO2MUX2bvUjFJGlF8E-89" target="HKZq3aPh20wgz_vlOcmp-50">
          <mxGeometry relative="1" as="geometry" />
        </mxCell>
        <mxCell id="HKZq3aPh20wgz_vlOcmp-61" style="edgeStyle=orthogonalEdgeStyle;rounded=0;orthogonalLoop=1;jettySize=auto;html=1;entryX=1;entryY=0.5;entryDx=0;entryDy=0;" edge="1" parent="1" source="LfVO2MUX2bvUjFJGlF8E-89" target="HKZq3aPh20wgz_vlOcmp-52">
          <mxGeometry relative="1" as="geometry" />
        </mxCell>
        <mxCell id="LfVO2MUX2bvUjFJGlF8E-89" value="History" style="whiteSpace=wrap;html=1;" parent="1" vertex="1">
          <mxGeometry x="-390" y="680" width="100" height="30" as="geometry" />
        </mxCell>
        <mxCell id="HKZq3aPh20wgz_vlOcmp-14" style="edgeStyle=orthogonalEdgeStyle;rounded=0;orthogonalLoop=1;jettySize=auto;html=1;entryX=0;entryY=0.5;entryDx=0;entryDy=0;" edge="1" parent="1" source="HKZq3aPh20wgz_vlOcmp-12" target="LfVO2MUX2bvUjFJGlF8E-66">
          <mxGeometry relative="1" as="geometry" />
        </mxCell>
        <mxCell id="HKZq3aPh20wgz_vlOcmp-12" value="Coupon&lt;br&gt;" style="whiteSpace=wrap;html=1;verticalAlign=top;" vertex="1" parent="1">
          <mxGeometry x="710" y="360" width="80" height="30" as="geometry" />
        </mxCell>
        <mxCell id="HKZq3aPh20wgz_vlOcmp-21" value="User_name" style="whiteSpace=wrap;html=1;verticalAlign=top;" vertex="1" parent="1">
          <mxGeometry x="270" y="455" width="90" height="30" as="geometry" />
        </mxCell>
        <mxCell id="HKZq3aPh20wgz_vlOcmp-38" style="edgeStyle=orthogonalEdgeStyle;rounded=0;orthogonalLoop=1;jettySize=auto;html=1;entryX=0.5;entryY=0;entryDx=0;entryDy=0;" edge="1" parent="1" source="HKZq3aPh20wgz_vlOcmp-23" target="HKZq3aPh20wgz_vlOcmp-24">
          <mxGeometry relative="1" as="geometry" />
        </mxCell>
        <mxCell id="HKZq3aPh20wgz_vlOcmp-23" value="password" style="whiteSpace=wrap;html=1;verticalAlign=top;" vertex="1" parent="1">
          <mxGeometry x="270" y="500" width="90" height="30" as="geometry" />
        </mxCell>
        <mxCell id="HKZq3aPh20wgz_vlOcmp-24" value="confirm password" style="whiteSpace=wrap;html=1;verticalAlign=top;" vertex="1" parent="1">
          <mxGeometry x="270" y="560" width="90" height="40" as="geometry" />
        </mxCell>
        <mxCell id="HKZq3aPh20wgz_vlOcmp-32" style="edgeStyle=orthogonalEdgeStyle;rounded=0;orthogonalLoop=1;jettySize=auto;html=1;" edge="1" parent="1" source="HKZq3aPh20wgz_vlOcmp-25" target="HKZq3aPh20wgz_vlOcmp-26">
          <mxGeometry relative="1" as="geometry" />
        </mxCell>
        <mxCell id="HKZq3aPh20wgz_vlOcmp-25" value="phone number&lt;br&gt;" style="whiteSpace=wrap;html=1;verticalAlign=top;" vertex="1" parent="1">
          <mxGeometry x="270" y="620" width="90" height="35" as="geometry" />
        </mxCell>
        <mxCell id="HKZq3aPh20wgz_vlOcmp-34" style="edgeStyle=orthogonalEdgeStyle;rounded=0;orthogonalLoop=1;jettySize=auto;html=1;entryX=0.5;entryY=0;entryDx=0;entryDy=0;exitX=1;exitY=0.5;exitDx=0;exitDy=0;" edge="1" parent="1" source="HKZq3aPh20wgz_vlOcmp-26" target="LfVO2MUX2bvUjFJGlF8E-4">
          <mxGeometry relative="1" as="geometry">
            <Array as="points">
              <mxPoint x="505" y="695" />
            </Array>
          </mxGeometry>
        </mxCell>
        <mxCell id="HKZq3aPh20wgz_vlOcmp-39" value="Login" style="edgeLabel;html=1;align=center;verticalAlign=middle;resizable=0;points=[];" vertex="1" connectable="0" parent="HKZq3aPh20wgz_vlOcmp-34">
          <mxGeometry x="-0.387" y="-1" relative="1" as="geometry">
            <mxPoint as="offset" />
          </mxGeometry>
        </mxCell>
        <mxCell id="HKZq3aPh20wgz_vlOcmp-26" value="code" style="whiteSpace=wrap;html=1;verticalAlign=top;" vertex="1" parent="1">
          <mxGeometry x="270" y="682.5" width="90" height="25" as="geometry" />
        </mxCell>
        <mxCell id="HKZq3aPh20wgz_vlOcmp-43" value="Time" style="whiteSpace=wrap;html=1;" vertex="1" parent="1">
          <mxGeometry x="-600" y="440" width="100" height="30" as="geometry" />
        </mxCell>
        <mxCell id="HKZq3aPh20wgz_vlOcmp-45" value="name_item" style="whiteSpace=wrap;html=1;" vertex="1" parent="1">
          <mxGeometry x="-600" y="550" width="100" height="30" as="geometry" />
        </mxCell>
        <mxCell id="HKZq3aPh20wgz_vlOcmp-46" value="Amount" style="whiteSpace=wrap;html=1;" vertex="1" parent="1">
          <mxGeometry x="-600" y="605" width="100" height="30" as="geometry" />
        </mxCell>
        <mxCell id="HKZq3aPh20wgz_vlOcmp-47" value="Price" style="whiteSpace=wrap;html=1;" vertex="1" parent="1">
          <mxGeometry x="-600" y="655" width="100" height="30" as="geometry" />
        </mxCell>
        <mxCell id="HKZq3aPh20wgz_vlOcmp-48" value="Total Price" style="whiteSpace=wrap;html=1;" vertex="1" parent="1">
          <mxGeometry x="-600" y="720" width="100" height="30" as="geometry" />
        </mxCell>
        <mxCell id="HKZq3aPh20wgz_vlOcmp-49" value="Payment" style="whiteSpace=wrap;html=1;" vertex="1" parent="1">
          <mxGeometry x="-600" y="780" width="100" height="30" as="geometry" />
        </mxCell>
        <mxCell id="HKZq3aPh20wgz_vlOcmp-50" value="Payment" style="whiteSpace=wrap;html=1;" vertex="1" parent="1">
          <mxGeometry x="-600" y="840" width="100" height="30" as="geometry" />
        </mxCell>
        <mxCell id="HKZq3aPh20wgz_vlOcmp-51" value="Id" style="whiteSpace=wrap;html=1;" vertex="1" parent="1">
          <mxGeometry x="-600" y="500" width="100" height="30" as="geometry" />
        </mxCell>
        <mxCell id="HKZq3aPh20wgz_vlOcmp-52" value="Time" style="whiteSpace=wrap;html=1;" vertex="1" parent="1">
          <mxGeometry x="-600" y="900" width="100" height="30" as="geometry" />
        </mxCell>
      </root>
    </mxGraphModel>
  </diagram>
</mxfile>
